<svg xmlns="http://www.w3.org/2000/svg" height="117.384" width="240.626"><path d="M157.63 18.066c15.964 0 25.816-4.208 26.13-7.311.012-.069.028-.138.04-.207-.1-3.117-10.03-7.421-26.17-7.421-16.225 0-26.186 4.351-26.186 7.472s9.961 7.467 26.186 7.467zm0-13.864c7.9 0 16.413 2 16.413 6.4s-8.508 6.4-16.413 6.4-16.411-2-16.411-6.4 8.506-6.4 16.411-6.4z" fill="#f0f6fc"/><path d="M88.622 13.87c8.717 0 13.285-2.428 13.285-3.271 0-.759-4.141-3.27-13.285-3.27s-13.287 2.511-13.287 3.27c0 .843 4.568 3.271 13.287 3.271z" fill="#f3783c"/><path d="M88.622 18.066c15.965 0 25.814-4.208 26.128-7.311.012-.069.027-.138.04-.207-.1-3.117-10.027-7.421-26.168-7.421-16.225 0-26.186 4.351-26.186 7.472s9.961 7.467 26.186 7.467zm0-13.864c7.905 0 16.411 2 16.411 6.4s-8.506 6.4-16.411 6.4-16.413-2-16.413-6.4 8.509-6.4 16.413-6.4z" fill="#f0f6fc"/><path d="M157.63 13.87c8.719 0 13.287-2.428 13.287-3.271 0-.759-4.141-3.27-13.287-3.27s-13.284 2.511-13.284 3.27c-.002.843 4.567 3.271 13.284 3.271z" fill="#f3783c"/><path d="M182.698 16.274c-5.485 3.218-15.472 4.918-25.068 4.918-10.879 0-22.255-2.184-27-6.291.072 2.84.523 6.918.867 10 .6 5.327 1.158 10.365.759 13.192-1.436 10.161-1 15.405 9.127 19.551 10.746 4.391 24.681 1.015 33.717-4.279 5.8-3.4 5.615-5.909 5.2-11.4-.13-1.735-.274-3.687-.247-5.926.083-7.057 1.333-13.248 2.545-19.235.034-.179.064-.352.1-.53zM113.688 16.274c-5.484 3.218-15.47 4.918-25.066 4.918-10.878 0-22.255-2.184-27-6.291.071 2.839.522 6.918.864 10 .6 5.332 1.159 10.365.76 13.192-1.436 10.161-1 15.4 9.127 19.551 10.745 4.391 24.678 1.015 33.716-4.279 5.8-3.4 5.616-5.909 5.2-11.4-.131-1.735-.275-3.687-.247-5.926.083-7.057 1.333-13.248 2.544-19.235.036-.178.066-.352.102-.53z" fill="#565556"/><path d="M18.936 29.152a29.149 29.149 0 00-6.034-2.25 14.039 14.039 0 00-3.185-.427c-2 0-3.367.665-4.071 1.984C2.866 33.67 17.605 42.833 23.9 46.746c1.469.915 2.716 1.691 3.586 2.284 6.841 4.684 13.659 9.5 20.5 14.335 20.025 14.141 40.731 28.764 62.453 40.21a149.578 149.578 0 0017.99 8.393c-3.622-2.86-7.187-5.787-10.676-8.659-7.683-6.308-15.624-12.827-23.919-18.431l-7.769-5.238c-14.634-9.839-29.762-20.011-43.8-31.014-5.721-4.485-21.68-18.074-23.329-19.474zM111.534 94.227c6.805.394 13.14.6 19.378.568a151.351 151.351 0 0019.814-1.02c-4.546-.831-9.072-1.752-13.5-2.644-9.734-1.973-19.8-4.013-29.748-5.078l-7.708-.811c4.004 2.881 7.922 5.902 11.764 8.985z" fill="#a57f53"/><path d="M25.721 51.613c-.843-.576-2.051-1.33-3.473-2.211-1.851-1.152-3.965-2.473-6.11-3.9-2.182 1.411-4.613 3.474-4.613 5.749 0 4.525 9.7 10.866 36.229 15.771-.52-.367-1.051-.737-1.57-1.1-6.83-4.83-13.64-9.641-20.463-14.309zM237.499 51.252c0-5.936-16.793-13.9-54.148-18.5-.073 1.1-.159 2.185-.172 3.319-.025 2.145.116 4 .238 5.66.432 5.77.746 9.939-6.741 14.329a49.974 49.974 0 01-24.246 6.718 32.338 32.338 0 01-12.236-2.239c-12.522-5.128-12.475-12.716-11.04-22.877a42.087 42.087 0 00-.319-8.219 616.687 616.687 0 00-14.215.069 65.355 65.355 0 00-.452 6.559c-.025 2.145.117 4 .239 5.66.432 5.77.745 9.939-6.741 14.329a49.972 49.972 0 01-24.246 6.718 32.348 32.348 0 01-12.237-2.239c-12.522-5.128-12.475-12.716-11.039-22.877a23.816 23.816 0 00.007-4.194 225.059 225.059 0 00-25.453 4.9c3.745 3.133 7.355 6.116 9.5 7.8 11.184 8.766 23.092 17.014 34.894 25 14.4 1.273 29.672 1.925 45.422 1.925 66.583-.005 112.985-11.513 112.985-21.841z" fill="#f0f6fc"/><path d="M44.934 78.21c-7.415-1.336-29.133-6.137-29.9-6.308a33.981 33.981 0 00-6.231.87c-3.763.987-5.676 2.594-5.681 4.784-.012 5.9 17.294 7.089 24.684 7.594 1.732.122 3.2.222 4.257.344 8.248.931 16.546 1.99 24.872 3.054 9 1.15 18.231 2.286 27.431 3.3q-7.715-4.9-15.272-10.021c-8.976-1.134-16.887-2.316-24.16-3.617z" fill="#a57f53"/><g fill="#3e4147"><path d="M88.622 16.996c7.905 0 16.411-2 16.411-6.4s-8.506-6.4-16.411-6.4-16.413 2-16.413 6.4 8.509 6.4 16.413 6.4zm0-9.667c9.144 0 13.285 2.511 13.285 3.27 0 .843-4.568 3.271-13.285 3.271s-13.287-2.428-13.287-3.271c0-.759 4.141-3.27 13.287-3.27zM157.63 16.996c7.9 0 16.413-2 16.413-6.4s-8.508-6.4-16.413-6.4-16.411 2-16.411 6.4 8.506 6.4 16.411 6.4zm0-9.667c9.146 0 13.287 2.511 13.287 3.27 0 .843-4.568 3.271-13.287 3.271s-13.284-2.428-13.284-3.271c-.002-.759 4.14-3.27 13.284-3.27z"/><path d="M240.626 51.252c0-13.064-38.688-19.366-57.009-21.619.472-4.254 1.253-8.284 2.045-12.205.366-1.806.711-3.6 1.04-5.407a4.62 4.62 0 00.169-.88c.016-.091.037-.18.052-.271h-.014c0-.09.036-.174.036-.264 0-6.885-15.1-10.6-29.315-10.6-13.714 0-28.217 3.469-29.216 9.9-1.358 1.842-1.044 6.247-.027 15.345.04.359.077.714.116 1.073-4.506-.024-9.04 0-13.5.066.463-3.078 1.062-6.043 1.651-8.96.365-1.8.711-3.6 1.039-5.407a4.584 4.584 0 00.17-.88c.016-.091.036-.18.052-.271h-.014c.005-.09.036-.174.036-.264 0-6.885-15.1-10.6-29.313-10.6-13.713 0-28.216 3.469-29.215 9.9-1.359 1.842-1.045 6.247-.031 15.345.194 1.734.376 3.45.533 5.1a219.68 219.68 0 00-28.151 5.556 2233.502 2233.502 0 01-10.929-9.25 1.737 1.737 0 00-.277-.188c-.333-.178-8.243-4.341-13.675-2.722a6.493 6.493 0 00-3.992 3.243c-2.911 5.461 3.449 11.585 10.541 16.646-3.272 2.376-5.028 4.925-5.028 7.616 0 11.065 28.267 17.257 45.36 19.987 3.18 2.236 6.36 4.456 9.578 6.68-6.449-.88-12.337-1.8-17.851-2.786-7.447-1.336-29.567-6.231-30.122-6.32-.246 0-9.34.011-13.353 4a6.476 6.476 0 00-2.01 4.734c-.016 8.83 17.267 10.016 27.594 10.726 1.68.116 3.1.21 4.125.327 8.231.931 16.516 1.99 24.825 3.048 11.089 1.421 22.552 2.883 33.875 4.027 6.111 3.743 12.28 7.358 18.564 10.669 8.569 4.517 17.691 9.09 26.7 11.008a1.562 1.562 0 001.256-2.782c-5.862-4.357-11.63-9.091-17.2-13.675-1.352-1.11-2.722-2.229-4.091-3.346 4.992.226 9.837.374 14.532.374h.74c9.692-.027 19.9-.266 28.747-2.793a1.563 1.563 0 00-.194-3.049c-7.228-1.1-14.548-2.583-21.63-4.013-9.806-1.99-19.944-4.041-30.035-5.117l-13.312-1.4-6.686-4.5c-1.149-.773-2.314-1.564-3.469-2.341 12.86.984 26.317 1.509 40.171 1.509 56.287-.007 116.112-8.76 116.112-24.969zm-60.327-9.284c.413 5.493.6 8-5.2 11.4-9.036 5.294-22.971 8.67-33.717 4.279-10.13-4.146-10.563-9.39-9.127-19.551.4-2.827-.163-7.865-.759-13.192-.344-3.082-.795-7.16-.867-10 4.748 4.107 16.124 6.291 27 6.291 9.6 0 19.583-1.7 25.068-4.918-.036.176-.066.351-.1.528-1.212 5.987-2.462 12.178-2.545 19.235-.027 2.236.117 4.188.247 5.923zM157.63 3.132c16.14 0 26.067 4.3 26.17 7.421-.012.069-.028.138-.04.207-.314 3.1-10.166 7.311-26.13 7.311-16.225 0-26.186-4.352-26.186-7.467s9.961-7.477 26.186-7.477zm-46.341 38.836c.413 5.493.6 8-5.2 11.4-9.038 5.294-22.971 8.67-33.716 4.279-10.131-4.152-10.563-9.39-9.127-19.551.4-2.827-.164-7.86-.76-13.192-.342-3.082-.793-7.161-.864-10 4.748 4.107 16.125 6.291 27 6.291 9.6 0 19.582-1.7 25.066-4.918-.036.176-.066.352-.1.528-1.211 5.987-2.461 12.178-2.544 19.235-.03 2.236.114 4.188.245 5.923zM88.622 3.132c16.141 0 26.064 4.3 26.168 7.421-.013.069-.028.138-.04.207-.314 3.1-10.163 7.311-26.128 7.311-16.225 0-26.186-4.352-26.186-7.467s9.961-7.477 26.186-7.477zm-77.1 48.12c0-2.275 2.431-4.338 4.613-5.749a217.574 217.574 0 006.11 3.9c1.422.881 2.63 1.635 3.473 2.211 6.826 4.668 13.633 9.479 20.463 14.3.519.366 1.05.736 1.57 1.1-26.527-4.901-36.226-11.242-36.226-15.762zm45.415 37.3c-8.326-1.064-16.624-2.123-24.872-3.054-1.053-.122-2.525-.222-4.257-.344-7.39-.505-24.7-1.7-24.684-7.594.005-2.19 1.918-3.8 5.681-4.784a33.981 33.981 0 016.231-.87c.762.171 22.48 4.972 29.9 6.308 7.273 1.3 15.184 2.483 24.165 3.615q7.556 5.134 15.272 10.021c-9.202-1.016-18.437-2.152-27.429-3.298zm80.283 2.583c4.431.892 8.957 1.813 13.5 2.644a151.351 151.351 0 01-19.814 1.02c-6.238.032-12.573-.174-19.378-.568-3.842-3.083-7.76-6.1-11.767-8.985l7.708.811c9.953 1.061 20.02 3.101 29.754 5.074zm-43.387-6.253c8.3 5.6 16.236 12.123 23.919 18.431 3.489 2.872 7.054 5.8 10.676 8.659a149.578 149.578 0 01-17.99-8.393C88.716 92.133 68.01 77.51 47.985 63.369c-6.843-4.839-13.661-9.651-20.5-14.335-.87-.593-2.117-1.369-3.586-2.284-6.295-3.913-21.034-13.076-18.254-18.287.7-1.319 2.068-1.984 4.071-1.984a14.039 14.039 0 013.185.427 29.149 29.149 0 016.034 2.25c1.649 1.4 17.611 14.989 23.331 19.474 14.038 11 29.166 21.175 43.8 31.014zm-49.64-38.714c-2.143-1.68-5.753-4.663-9.5-7.8a225.059 225.059 0 0125.453-4.9 23.816 23.816 0 01-.007 4.194c-1.436 10.161-1.483 17.749 11.039 22.877a32.348 32.348 0 0012.237 2.239 49.972 49.972 0 0024.246-6.718c7.486-4.39 7.173-8.559 6.741-14.329-.122-1.658-.264-3.515-.239-5.66a65.355 65.355 0 01.452-6.559 605.6 605.6 0 0114.215-.069 42.087 42.087 0 01.319 8.219c-1.435 10.161-1.482 17.749 11.04 22.877a32.338 32.338 0 0012.236 2.239 49.974 49.974 0 0024.246-6.718c7.487-4.39 7.173-8.559 6.741-14.329-.122-1.658-.263-3.515-.238-5.66.013-1.134.1-2.222.172-3.319 37.355 4.6 54.148 12.56 54.148 18.5 0 10.333-46.4 21.841-112.987 21.841-15.75 0-31.026-.652-45.422-1.925-11.797-7.99-23.705-16.238-34.889-25.004z"/></g></svg>
